<?xml version="1.0" encoding="UTF-8"?>
<svg id="Layer_2" data-name="Layer 2" xmlns="http://www.w3.org/2000/svg" viewBox="0 0 528.87 165.19">
  <defs>
    <style>
      .cls-1 {
        fill: #e60630;
      }

      .cls-2 {
        fill: #fafbfb;
      }
    </style>
  </defs>
  <g id="Layer_1-2" data-name="Layer 1">
    <g>
      <g>
        <polygon class="cls-2" points="360.83 158.48 354.36 158.48 354.36 154.15 352.97 154.15 352.97 165.12 354.36 165.12 354.36 159.74 360.83 159.74 360.83 165.12 362.2 165.12 362.2 154.15 360.83 154.15 360.83 158.48"/>
        <polygon class="cls-2" points="366.88 159.89 371.28 159.89 371.28 158.63 366.88 158.63 366.88 155.41 374.15 155.41 374.15 154.15 365.52 154.15 365.52 165.12 374.6 165.12 374.6 163.86 366.88 163.86 366.88 159.89"/>
        <polygon class="cls-2" points="378 154.15 376.64 154.15 376.64 165.12 385.17 165.12 385.17 163.86 378 163.86 378 154.15"/>
        <polygon class="cls-2" points="388.18 154.15 386.82 154.15 386.82 165.12 395.35 165.12 395.35 163.86 388.18 163.86 388.18 154.15"/>
        <path class="cls-2" d="M401.44,154.15c-1.56,0-2.86.52-3.88,1.55-1.02,1.03-1.54,2.35-1.54,3.94s.51,2.9,1.53,3.93c1.02,1.03,2.32,1.55,3.88,1.55s2.88-.52,3.9-1.55c1.03-1.03,1.54-2.34,1.54-3.93s-.52-2.9-1.55-3.94c-1.03-1.04-2.33-1.56-3.9-1.56ZM404.36,162.69c-.77.8-1.75,1.2-2.92,1.2s-2.15-.4-2.92-1.2c-.77-.8-1.16-1.82-1.16-3.05s.39-2.25,1.16-3.06c.77-.81,1.75-1.21,2.92-1.21s2.16.4,2.93,1.2c.77.8,1.15,1.82,1.15,3.06s-.39,2.25-1.16,3.05Z"/>
        <path class="cls-2" d="M413.29,161.21c-.25,0-.45.09-.61.27-.16.18-.24.42-.24.7,0,.26.07.47.2.64.14.17.31.25.51.25h.08c-.09.29-.21.58-.36.86-.15.28-.32.57-.52.87l.37.35c.5-.5.87-.97,1.12-1.41.25-.43.38-.83.38-1.2,0-.41-.09-.74-.26-.98-.17-.24-.4-.36-.68-.36Z"/>
        <path class="cls-2" d="M426.75,158.65c-.36-.04-.87-.09-1.53-.12-1.43-.09-2.36-.29-2.79-.62-.17-.13-.3-.28-.38-.43-.08-.15-.12-.32-.12-.5,0-.46.26-.85.77-1.15.51-.31,1.16-.46,1.95-.46s1.48.13,2.2.39c.71.26,1.39.65,2.03,1.17l.76-1.08c-.77-.56-1.57-.99-2.42-1.28-.85-.29-1.71-.43-2.59-.43-1.2,0-2.18.27-2.93.82-.75.54-1.13,1.24-1.13,2.08,0,.46.13.88.38,1.25.25.37.62.67,1.11.91.63.28,1.8.49,3.52.61.35.02.61.04.8.06.77.06,1.36.26,1.8.59.43.33.65.75.65,1.27,0,.65-.3,1.17-.91,1.58-.6.41-1.39.62-2.36.62-.78,0-1.58-.15-2.38-.46-.8-.3-1.57-.74-2.31-1.32l-.76,1.13c.81.63,1.66,1.09,2.56,1.39.9.3,1.86.46,2.91.46,1.38,0,2.49-.32,3.34-.95.85-.63,1.28-1.44,1.28-2.42,0-.82-.31-1.51-.93-2.08-.62-.56-1.46-.9-2.52-1.02Z"/>
        <polygon class="cls-2" points="440.98 154.15 430.37 154.15 430.37 155.41 434.98 155.41 434.98 165.12 436.36 165.12 436.36 155.41 440.98 155.41 440.98 154.15"/>
        <path class="cls-2" d="M446.37,154.15c-1.56,0-2.86.52-3.88,1.55s-1.54,2.35-1.54,3.94.51,2.9,1.53,3.93c1.02,1.03,2.32,1.55,3.88,1.55s2.88-.52,3.9-1.55c1.03-1.03,1.54-2.34,1.54-3.93s-.52-2.9-1.55-3.94c-1.03-1.04-2.33-1.56-3.9-1.56ZM449.29,162.69c-.77.8-1.75,1.2-2.92,1.2s-2.15-.4-2.92-1.2c-.77-.8-1.16-1.82-1.16-3.05s.39-2.25,1.16-3.06c.77-.81,1.75-1.21,2.92-1.21s2.16.4,2.93,1.2c.77.8,1.15,1.82,1.15,3.06s-.39,2.25-1.16,3.05Z"/>
        <path class="cls-2" d="M460.7,154.15h-6.29v10.98h1.36v-4.8h5.11c.99,0,1.78-.29,2.37-.88.59-.59.89-1.36.89-2.32s-.31-1.65-.92-2.18c-.61-.53-1.45-.8-2.52-.8ZM462.18,158.58c-.35.3-.88.46-1.57.46h-4.84v-3.63h4.91c.64,0,1.14.16,1.5.48.35.32.53.77.53,1.35s-.18,1.04-.53,1.34Z"/>
        <path class="cls-2" d="M469.13,161.21c-.25,0-.45.09-.61.27-.16.18-.24.42-.24.7,0,.26.07.47.2.64.14.17.31.25.51.25h.08c-.09.29-.21.58-.36.86-.15.28-.32.57-.52.87l.37.35c.5-.5.87-.97,1.12-1.41.25-.43.38-.83.38-1.2,0-.41-.09-.74-.26-.98-.17-.24-.4-.36-.68-.36Z"/>
        <path class="cls-2" d="M483.86,158.62c-.36-.04-.87-.09-1.54-.12-1.44-.09-2.37-.3-2.8-.62-.17-.13-.3-.28-.38-.43-.08-.15-.12-.32-.12-.51,0-.46.26-.85.77-1.16.52-.31,1.17-.46,1.96-.46s1.49.13,2.21.4c.72.26,1.4.66,2.05,1.18l.76-1.09c-.77-.57-1.58-.99-2.44-1.28-.86-.29-1.72-.43-2.6-.43-1.21,0-2.19.27-2.95.82-.76.55-1.13,1.24-1.13,2.09,0,.46.13.88.38,1.25.25.37.63.68,1.12.91.63.29,1.81.49,3.54.61.35.02.62.04.8.06.77.06,1.37.26,1.81.6s.65.76.65,1.27c0,.65-.3,1.18-.91,1.59s-1.4.62-2.37.62c-.79,0-1.58-.15-2.39-.46-.8-.31-1.58-.75-2.32-1.33l-.76,1.14c.81.63,1.67,1.1,2.57,1.4.9.31,1.87.46,2.92.46,1.39,0,2.51-.32,3.36-.95.85-.64,1.28-1.45,1.28-2.43,0-.83-.31-1.52-.93-2.09-.62-.57-1.47-.91-2.54-1.03Z"/>
        <polygon class="cls-2" points="495.82 160.87 491.39 154.15 490.12 154.15 490.12 165.12 491.47 165.12 491.47 156.55 495.82 163.04 500.17 156.55 500.17 165.12 501.53 165.12 501.53 154.15 500.28 154.15 495.82 160.87"/>
        <rect class="cls-2" x="504.76" y="154.09" width="1.38" height="11.04"/>
        <polygon class="cls-2" points="510.8 154.15 509.44 154.15 509.44 165.12 517.97 165.12 517.97 163.86 510.8 163.86 510.8 154.15"/>
        <polygon class="cls-2" points="520.98 163.86 520.98 159.89 525.38 159.89 525.38 158.63 520.98 158.63 520.98 155.41 528.25 155.41 528.25 154.15 519.62 154.15 519.62 165.12 528.7 165.12 528.7 163.86 520.98 163.86"/>
      </g>
      <polygon class="cls-2" points="294.22 23.34 270 23.34 270 .28 255.18 .28 255.18 63.12 270 63.12 270 36.77 294.22 36.77 294.22 63.12 308.96 63.12 308.96 .28 294.22 .28 294.22 23.34"/>
      <polygon class="cls-2" points="358.39 49.91 333.9 49.91 333.9 37.47 354.58 37.47 354.58 24.6 333.9 24.6 333.9 13.24 358.04 13.24 358.04 .28 319.34 .28 319.34 63.12 358.39 63.12 358.39 49.91"/>
      <polygon class="cls-2" points="407.25 49.65 382.77 49.65 382.77 .28 367.77 .28 367.77 63.12 407.25 63.12 407.25 49.65"/>
      <polygon class="cls-2" points="434.63 .28 419.64 .28 419.64 63.12 459.12 63.12 459.12 49.65 434.63 49.65 434.63 .28"/>
      <path class="cls-2" d="M477.49,54.14c2.83,2.9,6.06,5.13,9.7,6.67,3.64,1.55,7.47,2.33,11.46,2.33,4.69,0,9.14-1.06,13.33-3.18,4.18-2.12,7.71-5.08,10.59-8.91,2.03-2.68,3.57-5.66,4.6-8.91,1.03-3.25,1.54-6.72,1.54-10.41,0-4.44-.73-8.55-2.22-12.36-1.48-3.81-3.66-7.16-6.53-10.07-2.85-2.9-6.12-5.13-9.79-6.67-3.67-1.55-7.53-2.33-11.54-2.33s-7.85.78-11.51,2.3c-3.66,1.54-6.88,3.74-9.65,6.61-2.92,3.02-5.14,6.43-6.65,10.24-1.5,3.81-2.26,7.9-2.26,12.27s.76,8.43,2.26,12.22c1.51,3.79,3.73,7.19,6.65,10.2ZM487.56,18.75c2.99-3.46,6.7-5.18,11.09-5.18s8.12,1.72,11.12,5.18c2.98,3.46,4.48,7.78,4.48,12.97s-1.5,9.45-4.48,12.9c-2.99,3.45-6.7,5.17-11.12,5.17s-8.09-1.74-11.09-5.2c-2.99-3.46-4.49-7.75-4.49-12.87s1.5-9.51,4.49-12.97Z"/>
      <polygon class="cls-2" points="349.9 112.7 370.58 112.7 370.58 99.83 349.9 99.83 349.9 88.48 374.04 88.48 374.04 75.52 335.34 75.52 335.34 138.36 374.39 138.36 374.39 125.14 349.9 125.14 349.9 112.7"/>
      <path class="cls-2" d="M427.02,83.92c-6.65-5.61-15.83-8.41-27.56-8.41h-16.68v62.84h16.68c4.99,0,9.19-.36,12.59-1.1,3.38-.74,6.53-1.94,9.42-3.63,5.08-2.92,8.95-6.63,11.58-11.16,2.62-4.51,3.94-9.69,3.94-15.53,0-9.75-3.32-17.41-9.97-23.02ZM416.28,120.1c-3.7,3.19-8.83,4.77-15.39,4.77h-3.29v-35.97h3.29c6.56,0,11.69,1.61,15.39,4.81,3.69,3.2,5.54,7.61,5.54,13.22s-1.85,9.99-5.54,13.16Z"/>
      <rect class="cls-2" x="444" y="75.52" width="15" height="62.84"/>
      <path class="cls-2" d="M514.37,138.36h14.5l-24.57-53.25-4.42-9.58h-2.47l-4.42,9.58-24.57,53.25h14.5l3.51-8.75h24.42l3.51,8.75ZM491.42,117.21l7.23-18.01,7.23,18.01h-14.46Z"/>
      <polygon class="cls-2" points="325.73 138.35 312.27 138.35 306.96 109.36 291.19 138.35 290.25 138.35 273.31 108.96 268.16 136.2 267.75 138.35 255.18 138.35 261.3 107.99 267.83 75.51 268.85 75.51 291.02 113.78 311.94 75.51 313 75.51 318.24 101.39 325.73 138.35"/>
      <rect class="cls-2" x="43.36" y=".09" width="33.61" height="165.1"/>
      <rect class="cls-1" x="142.62" width="33.61" height="33.61"/>
      <rect class="cls-2" x="142.62" y="64.35" width="33.61" height="100.84"/>
      <path class="cls-2" d="M21.17,37.05c9.62,7.38,42.07,30.37,89.42,30,45.98-.35,77.42-22.51,87.19-30,7.34,8.26,14.67,16.53,22.01,24.79-11.8,9.14-52.01,37.93-110.87,37.61-57.66-.31-96.98-28.36-108.92-37.61,7.06-8.26,14.11-16.53,21.17-24.79Z"/>
    </g>
  </g>
</svg>